<svg xmlns="http://www.w3.org/2000/svg" xmlns:xlink="http://www.w3.org/1999/xlink" preserveAspectRatio="xMidYMid" width="17" height="30" viewBox="0 0 17 30">
  <defs>
    <style>

      .cls-2 {
        fill: #475993;
      }
    </style>
  </defs>
  <path d="M16.397,0.006 C16.397,0.006 12.559,-0.000 12.559,-0.000 C8.248,-0.000 5.000,2.515 5.000,7.000 C5.000,7.000 5.000,11.000 5.000,11.000 C5.000,11.000 1.000,11.000 1.000,11.000 C0.666,11.000 -0.000,11.441 -0.000,12.000 C-0.000,12.000 0.000,16.331 0.000,16.331 C0.000,16.669 0.667,17.000 1.000,17.000 C1.000,17.000 5.000,17.000 5.000,17.000 C5.000,17.000 5.000,29.000 5.000,29.000 C5.000,29.338 5.290,30.000 6.065,30.000 C6.065,30.000 10.100,30.000 10.100,30.000 C10.433,30.000 11.000,29.338 11.000,29.000 C11.000,29.000 11.000,17.000 11.000,17.000 C11.000,17.000 16.214,16.943 16.214,16.943 C16.548,16.943 17.000,16.338 17.000,16.000 C17.000,16.000 17.000,12.000 17.000,12.000 C17.000,11.838 16.499,11.000 16.000,11.000 C15.839,11.000 16.160,11.000 16.000,11.000 C16.000,11.000 11.000,11.000 11.000,11.000 C11.000,11.000 11.000,8.000 11.000,8.000 C11.000,6.613 12.218,6.000 14.000,6.000 C14.000,6.000 16.000,6.000 16.000,6.000 C16.333,6.000 17.000,5.535 17.000,5.197 C17.000,5.197 17.000,0.617 17.000,0.617 C17.000,0.280 16.730,0.006 16.397,0.006 Z" id="path-1" class="cls-2" fill-rule="evenodd"/>
</svg>
