<svg xmlns="http://www.w3.org/2000/svg" xmlns:xlink="http://www.w3.org/1999/xlink" preserveAspectRatio="xMidYMid" width="31" height="30" viewBox="0 0 31 30">
  <defs>
    <style>

      .cls-2 {
        fill: #000000;
        opacity: 0.2;
      }
    </style>
  </defs>
  <path d="M7.000,30.000 C7.000,30.000 -0.000,30.000 -0.000,30.000 C-0.000,30.000 -0.000,10.000 -0.000,10.000 C-0.000,10.000 7.000,10.000 7.000,10.000 C7.000,10.000 7.000,30.000 7.000,30.000 C7.000,30.000 7.000,30.000 7.000,30.000 ZM3.712,6.995 C3.712,6.995 3.668,6.995 3.668,6.995 C1.438,6.995 -0.005,5.428 -0.005,3.491 C-0.005,1.500 1.482,-0.012 3.754,-0.012 C6.028,-0.012 7.426,1.500 7.468,3.491 C7.470,5.428 6.030,6.995 3.712,6.995 ZM30.987,30.010 C30.987,30.010 25.000,30.000 25.000,30.000 C25.000,30.000 25.000,19.000 25.000,19.000 C25.000,16.278 23.404,15.000 21.000,15.000 C18.155,15.000 17.000,16.877 17.000,19.000 C16.989,19.415 17.000,21.391 17.000,22.000 C17.000,22.000 17.000,30.000 17.000,30.000 C17.000,30.000 11.000,30.000 11.000,30.000 C11.000,30.000 11.084,11.896 11.000,10.000 C11.000,10.000 17.000,10.000 17.000,10.000 C17.000,10.000 17.000,13.000 17.000,13.000 C17.872,11.622 19.472,9.000 23.000,9.000 C27.376,9.000 30.987,12.176 30.987,18.397 C30.987,18.397 30.987,30.010 30.987,30.010 C30.987,30.010 30.987,30.010 30.987,30.010 ZM17.000,13.000 C17.006,12.979 16.976,13.022 17.000,13.000 C17.000,13.000 17.000,13.000 17.000,13.000 C17.000,13.000 17.000,13.000 17.000,13.000 C17.000,13.000 17.000,13.000 17.000,13.000 Z" id="path-1" class="cls-2" fill-rule="evenodd"/>
</svg>
