<svg xmlns="http://www.w3.org/2000/svg" xmlns:xlink="http://www.w3.org/1999/xlink" preserveAspectRatio="xMidYMid" width="35" height="28" viewBox="0 0 35 28">
  <defs>
    <style>

      .cls-2 {
        fill: #33ccff;
      }
    </style>
  </defs>
  <path d="M34.035,0.517 C32.646,1.327 31.109,1.915 29.472,2.234 C28.163,0.857 26.298,-0.000 24.233,-0.000 C20.266,-0.000 17.051,3.166 17.051,7.069 C17.051,7.623 17.115,8.163 17.237,8.679 C11.271,8.385 5.979,5.570 2.438,1.293 C1.820,2.335 1.467,3.549 1.467,4.846 C1.467,7.300 2.736,9.464 4.661,10.730 C3.484,10.691 2.377,10.373 1.409,9.843 C1.409,9.843 1.409,9.931 1.409,9.931 C1.409,13.356 3.884,16.213 7.167,16.865 C6.566,17.025 5.932,17.113 5.276,17.113 C4.812,17.113 4.364,17.067 3.924,16.984 C4.838,19.793 7.489,21.837 10.630,21.896 C8.173,23.791 5.076,24.921 1.713,24.921 C1.133,24.921 0.562,24.887 -0.000,24.824 C3.178,26.829 6.951,28.000 11.007,28.000 C24.214,28.000 31.435,17.226 31.435,7.884 C31.435,7.884 31.412,6.968 31.412,6.968 C32.819,5.975 34.039,4.730 35.000,3.313 C33.712,3.875 32.330,4.256 30.878,4.426 C32.360,3.551 33.496,2.165 34.035,0.517 Z" id="path-1" class="cls-2" fill-rule="evenodd"/>
</svg>
