<svg xmlns="http://www.w3.org/2000/svg" xmlns:xlink="http://www.w3.org/1999/xlink" preserveAspectRatio="xMidYMid" width="15" height="15" viewBox="0 0 15 15">
  <defs>
    <style>

      .cls-2 {
        fill: #000000;
        opacity: 0.25;
      }
    </style>
  </defs>
  <path d="M9.759,2.666 C9.759,2.666 0.819,11.568 0.819,11.568 C0.757,11.631 0.712,11.708 0.690,11.793 C0.690,11.793 0.016,14.379 0.016,14.379 C-0.028,14.548 0.021,14.728 0.145,14.852 C0.239,14.946 0.366,14.996 0.495,14.996 C0.537,14.996 0.579,14.991 0.620,14.980 C0.620,14.980 3.216,14.309 3.216,14.309 C3.301,14.287 3.379,14.242 3.441,14.181 C3.441,14.181 12.381,5.277 12.381,5.277 C12.381,5.277 12.381,5.277 12.381,5.277 C12.381,5.277 12.381,5.277 12.381,5.277 C12.381,5.277 14.852,2.768 14.852,2.768 C15.045,2.575 15.045,2.263 14.852,2.070 C14.852,2.070 12.930,0.156 12.930,0.156 C12.837,0.064 12.711,0.012 12.580,0.012 C12.448,0.012 12.322,0.064 12.230,0.156 C12.230,0.156 9.759,2.665 9.759,2.665 C9.759,2.665 9.759,2.665 9.759,2.665 C9.759,2.666 9.759,2.666 9.759,2.666 ZM2.836,13.388 C2.836,13.388 1.186,13.815 1.186,13.815 C1.186,13.815 1.615,12.171 1.615,12.171 C1.615,12.171 12.527,1.353 12.527,1.353 C12.527,1.353 13.749,2.570 13.749,2.570 C13.749,2.570 2.836,13.388 2.836,13.388 Z" id="path-1" class="cls-2" fill-rule="evenodd"/>
</svg>
