<svg xmlns="http://www.w3.org/2000/svg" xmlns:xlink="http://www.w3.org/1999/xlink" preserveAspectRatio="xMidYMid" width="45" height="39" viewBox="0 0 45 39">
  <defs>
    <style>

      .cls-2 {
        fill: #ffffff;
        stroke: #353b53;
        stroke-linejoin: round;
        stroke-width: 1px;
        opacity: 0.15;
        fill-opacity: 0;
      }
    </style>
  </defs>
  <path d="M38.565,13.798 C37.497,16.557 36.650,19.371 36.500,22.500 C36.500,22.500 44.500,22.500 44.500,22.500 C44.500,22.500 44.500,38.500 44.500,38.500 C44.500,38.500 28.500,38.494 28.500,38.494 C28.500,38.494 28.500,26.202 28.500,26.202 C28.500,20.989 29.222,16.295 30.673,12.122 C32.121,7.953 34.677,4.077 38.337,0.501 C38.337,0.501 44.513,4.970 44.513,4.970 C41.614,8.100 39.631,11.043 38.565,13.798 ZM8.500,22.500 C8.500,22.500 16.500,22.500 16.500,22.500 C16.500,22.500 16.500,38.500 16.500,38.500 C16.500,38.500 0.500,38.494 0.500,38.494 C0.500,38.494 0.500,26.202 0.500,26.202 C0.500,20.989 1.222,16.295 2.673,12.122 C4.121,7.953 6.677,4.077 10.337,0.501 C10.337,0.501 16.513,4.970 16.513,4.970 C13.614,8.100 11.631,11.043 10.565,13.798 C9.497,16.557 8.650,19.371 8.500,22.500 Z" id="path-1" class="cls-2" fill-rule="evenodd"/>
</svg>
