<svg xmlns="http://www.w3.org/2000/svg" xmlns:xlink="http://www.w3.org/1999/xlink" preserveAspectRatio="xMidYMid" width="65" height="56" viewBox="0 0 65 56">
  <defs>
    <style>

      .cls-2 {
        fill: #ffffff;
        stroke: #353b53;
        stroke-linejoin: round;
        stroke-width: 1px;
        opacity: 0.1;
        fill-opacity: 0;
      }
    </style>
  </defs>
  <path d="M55.842,19.748 C54.288,23.740 53.057,27.813 52.839,32.342 C52.839,32.342 64.470,32.342 64.470,32.342 C64.470,32.342 64.470,55.500 64.470,55.500 C64.470,55.500 41.208,55.492 41.208,55.492 C41.208,55.492 41.208,37.700 41.208,37.700 C41.208,30.155 42.258,23.362 44.368,17.322 C46.472,11.287 50.188,5.677 55.509,0.501 C55.509,0.501 64.489,6.970 64.489,6.970 C60.274,11.500 57.390,15.760 55.842,19.748 ZM12.131,32.342 C12.131,32.342 23.762,32.342 23.762,32.342 C23.762,32.342 23.762,55.500 23.762,55.500 C23.762,55.500 0.500,55.492 0.500,55.492 C0.500,55.492 0.500,37.700 0.500,37.700 C0.500,30.155 1.550,23.362 3.660,17.322 C5.764,11.287 9.480,5.677 14.801,0.501 C14.801,0.501 23.781,6.970 23.781,6.970 C19.566,11.500 16.682,15.760 15.134,19.748 C13.580,23.740 12.349,27.813 12.131,32.342 Z" id="path-1" class="cls-2" fill-rule="evenodd"/>
</svg>
