<svg xmlns="http://www.w3.org/2000/svg" xmlns:xlink="http://www.w3.org/1999/xlink" preserveAspectRatio="xMidYMid" width="26" height="26" viewBox="0 0 26 26">
  <defs>
    <style>

      .cls-2 {
        stroke: #353b53;
        stroke-width: 1px;
        fill: none;
        opacity: 0.3;
      }
    </style>
  </defs>
  <path d="M25.429,24.722 C25.429,24.722 24.722,25.429 24.722,25.429 C24.722,25.429 19.754,20.461 19.754,20.461 C15.248,24.593 8.227,24.490 3.862,20.126 C-0.622,15.642 -0.622,8.346 3.862,3.862 C8.346,-0.622 15.642,-0.622 20.126,3.862 C24.490,8.227 24.593,15.248 20.461,19.754 C20.461,19.754 25.429,24.722 25.429,24.722 ZM19.475,4.513 C15.350,0.387 8.638,0.387 4.513,4.513 C0.388,8.638 0.388,15.350 4.513,19.475 C8.519,23.481 14.957,23.585 19.104,19.811 C19.104,19.811 19.065,19.772 19.065,19.772 C19.065,19.772 19.772,19.065 19.772,19.065 C19.772,19.065 19.811,19.104 19.811,19.104 C23.585,14.956 23.481,8.518 19.475,4.513 Z" id="path-1" class="cls-2" fill-rule="evenodd"/>
</svg>
