<svg xmlns="http://www.w3.org/2000/svg" xmlns:xlink="http://www.w3.org/1999/xlink" preserveAspectRatio="xMidYMid" width="30" height="18" viewBox="0 0 30 18">
  <defs>
    <style>

      .cls-2 {
        fill: #e14071;
      }
    </style>
  </defs>
  <path d="M16.095,13.001 C16.095,13.001 28.018,0.350 28.018,0.350 C28.451,-0.108 29.163,-0.120 29.611,0.323 C30.058,0.767 30.068,1.500 29.637,1.959 C29.637,1.959 15.779,16.664 15.779,16.664 C15.354,17.112 14.584,17.112 14.159,16.664 C14.159,16.664 0.300,1.960 0.300,1.960 C-0.133,1.500 -0.120,0.768 0.327,0.324 C0.546,0.106 0.828,-0.003 1.110,-0.003 C1.405,-0.003 1.698,0.115 1.920,0.350 C1.920,0.350 13.842,13.001 13.842,13.001 " id="path-1" class="cls-2" fill-rule="evenodd"/>
</svg>
