<svg xmlns="http://www.w3.org/2000/svg" xmlns:xlink="http://www.w3.org/1999/xlink" preserveAspectRatio="xMidYMid" width="30" height="28" viewBox="0 0 30 28">
  <defs>
    <style>

      .cls-2 {
        fill: #fffb01;
      }
    </style>
  </defs>
  <path d="M29.324,20.992 C25.543,20.369 23.820,16.547 23.636,16.113 C23.633,16.104 23.618,16.074 23.614,16.065 C23.425,15.680 23.378,15.367 23.477,15.137 C23.675,14.668 24.517,14.402 25.055,14.231 C25.207,14.182 25.349,14.137 25.462,14.092 C26.551,13.662 27.097,13.113 27.086,12.458 C27.075,11.939 26.668,11.462 26.064,11.248 C25.856,11.161 25.609,11.114 25.368,11.114 C25.201,11.114 24.954,11.137 24.717,11.248 C24.256,11.463 23.846,11.580 23.536,11.593 C23.398,11.587 23.293,11.564 23.218,11.538 C23.227,11.375 23.238,11.207 23.249,11.036 C23.249,11.036 23.254,10.948 23.254,10.948 C23.383,8.909 23.542,6.372 22.863,4.851 C20.855,0.350 16.593,0.000 15.335,0.000 C15.335,0.000 14.748,0.005 14.748,0.005 C13.492,0.005 9.238,0.355 7.232,4.853 C6.551,6.378 6.712,8.914 6.841,10.953 C6.854,11.153 6.866,11.349 6.877,11.539 C6.791,11.569 6.667,11.595 6.499,11.595 C6.138,11.595 5.705,11.478 5.214,11.248 C4.503,10.915 3.204,11.360 3.028,12.282 C2.933,12.781 3.134,13.500 4.633,14.092 C4.750,14.138 4.896,14.185 5.076,14.242 C5.579,14.402 6.420,14.668 6.619,15.136 C6.717,15.368 6.670,15.680 6.463,16.104 C6.389,16.276 4.608,20.329 0.675,20.976 C0.267,21.043 -0.024,21.405 -0.001,21.817 C0.006,21.932 0.032,22.047 0.081,22.163 C0.412,22.935 1.670,23.472 4.039,23.848 C4.091,23.982 4.152,24.258 4.186,24.418 C4.237,24.646 4.289,24.883 4.361,25.127 C4.433,25.374 4.647,25.790 5.266,25.790 C5.475,25.790 5.718,25.742 5.981,25.691 C6.360,25.617 6.878,25.515 7.521,25.515 C7.877,25.515 8.248,25.547 8.624,25.609 C9.332,25.727 9.954,26.166 10.675,26.676 C11.737,27.426 12.702,28.000 14.632,28.000 C14.683,28.000 14.733,27.998 14.783,27.995 C14.854,27.998 14.926,28.000 14.999,28.000 C16.690,28.000 18.178,27.554 19.423,26.674 C20.111,26.187 20.761,25.728 21.470,25.609 C21.847,25.547 22.218,25.516 22.575,25.516 C23.191,25.516 23.682,25.594 24.121,25.680 C24.417,25.739 24.649,25.767 24.863,25.767 C25.295,25.767 25.613,25.530 25.735,25.115 C25.805,24.874 25.857,24.645 25.908,24.411 C25.935,24.287 26.001,23.989 26.056,23.845 C28.391,23.474 29.583,22.958 29.913,22.188 C29.963,22.077 29.992,21.959 30.000,21.834 C30.022,21.422 29.732,21.061 29.324,20.992 Z" id="path-1" class="cls-2" fill-rule="evenodd"/>
</svg>
