<svg xmlns="http://www.w3.org/2000/svg" xmlns:xlink="http://www.w3.org/1999/xlink" preserveAspectRatio="xMidYMid" width="17" height="17" viewBox="0 0 17 17">
  <defs>
    <style>

      .cls-2 {
        fill: #000000;
        opacity: 0.2;
      }
    </style>
  </defs>
  <path d="M15.893,1.082 C15.196,0.385 14.268,0.001 13.277,0.001 C12.287,0.001 11.357,0.385 10.661,1.082 C10.661,1.082 8.079,3.666 8.079,3.666 C7.147,4.599 6.821,5.910 7.094,7.111 C6.826,7.051 6.550,7.016 6.268,7.016 C5.278,7.016 4.349,7.400 3.653,8.097 C3.653,8.097 1.071,10.681 1.071,10.681 C-0.371,12.125 -0.371,14.474 1.071,15.918 C1.767,16.614 2.696,16.998 3.686,16.998 C4.677,16.998 5.606,16.614 6.302,15.918 C6.302,15.918 8.884,13.333 8.884,13.333 C9.817,12.400 10.142,11.089 9.869,9.889 C10.137,9.949 10.413,9.983 10.695,9.983 C11.686,9.983 12.615,9.600 13.311,8.903 C13.311,8.903 15.893,6.318 15.893,6.318 C17.335,4.875 17.335,2.526 15.893,1.082 ZM8.079,12.527 C8.079,12.527 5.497,15.111 5.497,15.111 C5.016,15.593 4.373,15.858 3.686,15.858 C3.000,15.858 2.357,15.593 1.876,15.111 C0.877,14.112 0.877,12.486 1.876,11.487 C1.876,11.487 4.458,8.902 4.458,8.902 C4.939,8.421 5.582,8.156 6.268,8.156 C6.759,8.156 7.227,8.293 7.630,8.547 C7.630,8.547 5.423,10.755 5.423,10.755 C5.201,10.978 5.201,11.338 5.423,11.561 C5.534,11.673 5.680,11.728 5.826,11.728 C5.971,11.728 6.117,11.673 6.228,11.561 C6.228,11.561 8.435,9.352 8.435,9.352 C9.056,10.342 8.939,11.666 8.079,12.527 ZM15.088,5.513 C15.088,5.513 12.505,8.097 12.505,8.097 C12.024,8.578 11.381,8.844 10.695,8.844 C10.204,8.844 9.737,8.706 9.334,8.452 C9.334,8.452 11.540,6.244 11.540,6.244 C11.763,6.021 11.763,5.661 11.540,5.438 C11.318,5.216 10.957,5.216 10.735,5.438 C10.735,5.438 8.528,7.647 8.528,7.647 C7.907,6.657 8.025,5.333 8.884,4.472 C8.884,4.472 11.466,1.888 11.466,1.888 C11.947,1.406 12.591,1.141 13.277,1.141 C13.964,1.141 14.606,1.406 15.088,1.888 C15.569,2.370 15.834,3.013 15.834,3.700 C15.834,4.387 15.569,5.031 15.088,5.513 Z" id="path-1" class="cls-2" fill-rule="evenodd"/>
</svg>
