<svg xmlns="http://www.w3.org/2000/svg" xmlns:xlink="http://www.w3.org/1999/xlink" preserveAspectRatio="xMidYMid" width="17" height="17" viewBox="0 0 17 17">
  <defs>
    <style>

      .cls-2 {
        fill: #000000;
        opacity: 0.25;
      }
    </style>
  </defs>
  <path d="M8.500,11.688 C11.137,11.688 13.281,9.065 13.281,5.844 C13.281,2.622 11.136,0.000 8.500,0.000 C7.200,0.000 5.985,0.624 5.080,1.756 C4.202,2.853 3.719,4.305 3.719,5.844 C3.719,9.065 5.864,11.688 8.500,11.688 ZM8.500,1.063 C10.550,1.063 12.219,3.208 12.219,5.844 C12.219,8.480 10.550,10.625 8.500,10.625 C6.450,10.625 4.781,8.480 4.781,5.844 C4.781,3.208 6.449,1.063 8.500,1.063 ZM12.219,10.625 C11.925,10.625 11.688,10.863 11.688,11.157 C11.688,11.450 11.925,11.688 12.219,11.688 C14.269,11.688 15.937,13.356 15.937,15.406 C15.937,15.699 15.699,15.938 15.406,15.938 C15.406,15.938 1.594,15.938 1.594,15.938 C1.301,15.938 1.062,15.699 1.062,15.406 C1.062,13.356 2.731,11.688 4.781,11.688 C5.075,11.688 5.312,11.450 5.312,11.157 C5.312,10.863 5.075,10.625 4.781,10.625 C2.145,10.625 -0.000,12.770 -0.000,15.406 C-0.000,16.285 0.715,17.000 1.594,17.000 C1.594,17.000 15.406,17.000 15.406,17.000 C16.285,17.000 17.000,16.285 17.000,15.406 C17.000,12.770 14.855,10.625 12.219,10.625 Z" id="path-1" class="cls-2" fill-rule="evenodd"/>
</svg>
